<svg xmlns="http://www.w3.org/2000/svg" viewBox="0 0 384 512" width="100" height="100">
  <!-- HTML5 Shield -->
  <path d="M0 32l34.9 395.8L191.5 480l157.6-52.2L384 32H0zm308.2 127.9H124.4l4.1 49.4h175.6l-13.6 148.4-97.9 27v.3h-1.1l-98.7-27.3-6-75.8h47.7L138 320l53.5 14.5 53.6-14.5 5.8-64.3H84.3L71.5 112.2h241.1l-4.4 47.7z" fill="#E34F26"/>
  
  <!-- HTML5 Text -->
  <path d="M308.2 159.9H124.4l4.1 49.4h175.6l-13.6 148.4-97.9 27v.3h-1.1l-98.7-27.3-6-75.8h47.7L138 320l53.5 14.5 53.6-14.5 5.8-64.3H84.3L71.5 112.2h241.1l-4.4 47.7z" fill="#F16529"/>
  
  <!-- Inner details -->
  <path d="M191.5 208.4H138l53.5 14.5z" fill="#EBEBEB"/>
  <path d="M192 208.4l53.6-14.5-5.8 64.3H192z" fill="#EBEBEB"/>
</svg>